<?xml version="1.0" encoding="UTF-8"?><svg id="a" xmlns="http://www.w3.org/2000/svg" width="82.68" height="36.75" viewBox="0 0 82.68 36.75"><defs><style>.b{fill:#fff;}</style></defs><path class="b" d="M74.13,11.18l-1-.52C67.35,4.04,59.03,.18,50.32,.05c-3.6-.18-7.2,.1-10.78,.84-5.72,1.65-12.2,8.39-13.94,10.3-7.28,.51-14.38,2.18-21.12,4.95-2.28,.88-3.92,2.84-4.4,5.3-.02,.13-.03,.27-.03,.4-.02,.09-.04,.19-.04,.29v.21c0,.41,.06,.81,.18,1.22l1.71,5.16c.59,1.81,2.25,3.02,4.14,3.02h4.18c.94,1.94,2.53,3.46,4.52,4.3,1.1,.46,2.25,.69,3.4,.69s2.27-.22,3.35-.67c1.99-.82,3.63-2.38,4.58-4.33h30.73c.94,1.95,2.53,3.46,4.52,4.3,2.17,.92,4.57,.92,6.75,.02,1.99-.82,3.63-2.38,4.58-4.33h1.65c4.64-.02,8.4-3.84,8.38-8.51v-3.72c0-4.57-3.58-8.05-8.55-8.34Zm.16,17.43h-.72c.04-.34,.06-.67,.06-1,.06-2.4-.81-4.68-2.45-6.41-1.64-1.74-3.85-2.73-6.23-2.79-2.38-.05-4.64,.82-6.36,2.47-1.72,1.65-2.71,3.88-2.77,6.28,0,.15,0,.3,0,.43,0,.34,.02,.68,.06,1.01H26.98c.04-.34,.06-.67,.06-1.01,.05-4.99-3.94-9.11-8.91-9.17-4.95,.06-8.94,4.18-8.89,9.17,0,.34,.02,.68,.06,1.01h-3.26c-.53,0-1-.34-1.17-.86l-1.32-3.99h2.87c.43,.03,.82-.12,1.13-.41,.31-.28,.49-.67,.51-1.09,.02-.42-.12-.83-.41-1.14-.28-.31-.67-.5-1.19-.52H3.76c.45-.68,1.1-1.22,1.88-1.52,6.63-2.73,13.61-4.34,20.7-4.77h47.4c1.93-.1,3.74,.85,4.85,2.38h-1.71c-.41,0-.82,.12-1.13,.41-.31,.28-.49,.67-.51,1.09-.02,.42,.12,.83,.4,1.14,.28,.31,.67,.5,1.2,.52h2.72v1.47h-2.68c-.41-.02-.82,.12-1.13,.41-.31,.28-.49,.67-.51,1.09-.02,.42,.12,.83,.4,1.14,.28,.31,.67,.49,1.19,.51h2.56c-.53,2.36-2.62,4.11-5.1,4.14Zm-14.1-5.16c1.09-1.17,2.57-1.84,4.17-1.88,.06,0,.12,0,.18,0,1.53,0,2.98,.58,4.09,1.64,1.16,1.1,1.82,2.59,1.87,4.2v.19c.04,3.26-2.55,5.95-5.78,6.01h-.01c-1.57,.05-3.11-.53-4.27-1.64-1.16-1.1-1.82-2.6-1.87-4.2-.05-1.61,.53-3.14,1.63-4.3Zm-42.07-1.89c3.29,.09,5.89,2.86,5.81,6.18-.09,3.19-2.62,5.75-5.78,5.85-1.58-.05-3.06-.72-4.15-1.88-1.1-1.17-1.68-2.7-1.63-4.3,.09-3.2,2.64-5.77,5.76-5.85Zm51.16-10.39h-10.44V4.71c3.92,1.35,7.48,3.55,10.44,6.45ZM50.25,3.21c1.83,.02,3.66,.23,5.46,.62v7.33H30.02c2.56-2.5,6.78-6.18,10.35-7.22,3.24-.65,6.55-.9,9.88-.73Z"/></svg>